<svg version="1.1" id="Layer_1" xmlns="http://www.w3.org/2000/svg" xmlns:xlink="http://www.w3.org/1999/xlink" x="0px" y="0px"
	 width="100%" viewBox="0 0 500 500" enable-background="new 0 0 500 500" xml:space="preserve">
<path fill="#000000" opacity="1.000000" stroke="none" 
	d="
M276.000000,501.000000 
	C184.000015,501.000000 92.500046,501.000000 1.000049,501.000000 
	C1.000033,334.333405 1.000033,167.666794 1.000016,1.000139 
	C167.666565,1.000092 334.333130,1.000092 500.999756,1.000046 
	C500.999847,167.666519 500.999847,334.333038 500.999939,500.999786 
	C426.166656,501.000000 351.333344,501.000000 276.000000,501.000000 
M90.839081,228.634445 
	C90.839081,225.872177 90.839081,223.109924 90.839081,219.984314 
	C82.962730,219.984314 75.228119,219.925903 67.495621,220.027527 
	C65.680939,220.051361 63.873371,220.616196 62.012848,221.822998 
	C62.039082,223.908813 62.065315,225.994644 62.497742,228.832062 
	C71.671783,228.853424 80.845818,228.874786 90.839081,228.634445 
M80.489967,237.111481 
	C77.401527,237.111481 74.313087,237.111481 71.038574,237.111481 
	C71.038574,244.309418 70.950897,251.102921 71.075943,257.892487 
	C71.137497,261.234711 71.592636,264.569733 72.778778,267.977570 
	C75.206604,267.947296 77.634430,267.917023 80.749489,267.410706 
	C80.788063,257.562653 80.826637,247.714615 80.489967,237.111481 
M410.956787,228.139236 
	C410.956787,225.546509 410.956787,222.953766 410.956787,219.980255 
	C406.906372,219.980255 403.147949,219.855484 399.401611,220.015152 
	C395.613220,220.176590 391.836853,220.619690 388.016083,221.883560 
	C388.016083,237.095383 388.016083,252.307190 388.016083,267.999512 
	C394.417450,267.999512 400.036011,267.891266 405.647736,268.039825 
	C409.049805,268.129883 411.314240,267.839081 411.108490,263.347778 
	C410.896851,258.728363 408.167053,258.826263 405.029175,259.073364 
	C402.864136,259.243866 400.713593,259.598419 398.582642,259.867462 
	C396.966980,249.003235 396.966980,249.003250 406.813202,249.000122 
	C407.809814,248.999802 408.806488,249.003815 409.803070,248.998123 
	C417.308472,248.955292 418.509369,247.159454 415.519928,239.104080 
	C409.763184,239.104080 404.006439,239.104080 398.285614,239.104080 
	C398.285614,235.703629 398.285614,232.969284 398.285614,230.478653 
	C402.675385,229.984650 406.767273,229.524170 410.956787,228.139236 
M161.952484,228.137573 
	C161.952484,225.546875 161.952484,222.956161 161.952484,219.982269 
	C158.235001,219.982269 154.807785,219.859970 151.393005,220.013733 
	C147.275681,220.199142 143.168884,220.618881 139.007736,221.881165 
	C139.007736,237.110397 139.007736,252.339630 139.007736,267.589783 
	C147.067612,267.589783 154.289017,267.589783 161.562073,267.589783 
	C161.562073,264.791290 161.562073,262.408295 161.562073,259.977448 
	C158.178055,259.977448 155.201843,260.180756 152.278854,259.875031 
	C151.146790,259.756653 149.453018,258.678955 149.179001,257.709320 
	C147.343262,251.213638 149.119659,248.998703 155.763290,249.000122 
	C157.426605,249.000473 159.089981,249.007767 160.753235,248.998123 
	C168.270248,248.954529 169.503845,247.123428 166.519958,239.104111 
	C160.763840,239.104111 155.007706,239.104111 149.294220,239.104111 
	C149.294220,235.704895 149.294220,232.969757 149.294220,230.480408 
	C153.681503,229.985367 157.772217,229.523804 161.952484,228.137573 
M268.148621,221.525085 
	C268.102173,236.325470 268.043671,251.125854 268.048431,265.926239 
	C268.048645,266.594818 268.620697,267.263184 269.871735,267.980438 
	C276.037872,267.982849 282.204834,267.927704 288.369751,268.015961 
	C290.830292,268.051147 291.940582,267.256195 292.039856,264.601837 
	C292.245270,259.108673 290.945129,258.366669 283.344604,259.701233 
	C281.009155,260.111328 277.731903,261.025604 278.118744,256.863190 
	C278.394897,253.891418 275.466125,248.849350 282.181274,248.985016 
	C286.960663,249.081573 291.743561,249.003754 296.798767,249.003754 
	C296.798767,245.763107 296.798767,243.200150 296.798767,240.784531 
	C296.204041,240.477936 295.919525,240.206299 295.629730,240.200592 
	C291.134735,240.112045 286.630035,240.198975 282.148956,239.911560 
	C280.771637,239.823212 278.649200,239.052811 278.252014,238.047729 
	C276.202972,232.862854 278.351135,230.027390 283.933228,230.001160 
	C285.099792,229.995682 286.270782,229.928604 287.432068,230.005524 
	C290.479401,230.207352 292.060608,229.149231 292.051025,225.771347 
	C292.041534,222.422150 290.903809,220.865219 287.384857,220.966400 
	C281.223633,221.143585 275.055359,221.074036 268.148621,221.525085 
M99.829384,267.966248 
	C102.405373,267.966248 104.981361,267.966248 108.206108,267.966248 
	C108.206108,261.219757 108.206108,255.335190 108.206108,248.341675 
	C110.349731,249.512299 111.983131,249.854126 112.572792,250.827942 
	C114.454437,253.935425 116.253136,257.162720 117.531448,260.552094 
	C120.606796,268.706177 121.578781,269.319855 131.030487,267.234009 
	C128.993088,262.552277 127.323402,257.720825 124.849846,253.343613 
	C122.841522,249.789703 123.019051,247.533127 126.335793,245.044540 
	C131.818192,240.931076 131.841660,235.158310 130.060730,229.285538 
	C128.750778,224.965805 121.834221,220.631271 116.713821,220.645905 
	C112.070518,220.659195 107.424255,221.055695 102.786072,220.958771 
	C99.513222,220.890366 98.920807,222.484955 98.970032,225.263245 
	C99.018364,227.991882 99.023735,230.273987 102.809265,230.020752 
	C106.786949,229.754684 110.937653,229.127823 114.723549,229.965546 
	C117.297989,230.535217 119.374626,233.354584 121.673874,235.167938 
	C119.614777,236.762985 117.731216,239.353271 115.461411,239.753616 
	C110.120354,240.695633 104.594917,240.592270 98.640236,240.339340 
	C98.425179,246.713257 98.091110,253.086395 98.049713,259.461456 
	C98.031433,262.277161 98.606728,265.096680 99.829384,267.966248 
M117.612617,272.127716 
	C96.735313,272.032501 75.858009,271.937286 55.042534,271.394043 
	C55.042534,271.394043 54.950302,270.951202 54.982006,270.021820 
	C54.983505,251.445236 55.008663,232.868561 54.947105,214.292191 
	C54.941433,212.579269 54.383301,210.868210 53.187420,209.062134 
	C51.089977,209.082840 48.992531,209.103561 46.188541,209.578079 
	C46.156071,230.682022 46.123596,251.785980 45.958202,273.716858 
	C46.282673,276.084320 46.607143,278.451782 46.239044,281.247833 
	C47.085438,281.504700 47.931416,281.984314 48.778294,281.985901 
	C70.857018,282.027618 92.935860,282.031738 115.014534,281.980804 
	C115.991135,281.978577 116.966393,281.397064 117.975609,280.180359 
	C117.965576,277.765259 117.955544,275.350189 117.612617,272.127716 
M431.586182,202.206421 
	C409.608002,202.144806 387.629822,202.077194 365.651611,202.058151 
	C365.133331,202.057709 364.614624,202.602112 364.017700,203.803604 
	C364.038727,206.244141 364.059753,208.684692 364.455658,211.903748 
	C384.299072,211.916214 404.142456,211.928696 423.966370,212.885712 
	C423.966736,231.169434 423.965973,249.453156 423.968079,267.736877 
	C423.968903,275.169891 423.971710,275.169891 432.016296,274.943024 
	C432.343414,274.123474 432.955505,273.304138 432.956085,272.484344 
	C432.970642,252.039627 432.920654,231.594849 432.949463,210.275482 
	C432.617737,207.848938 432.286011,205.422409 431.586182,202.206421 
M206.466171,221.192062 
	C206.177933,221.355484 206.056213,221.601364 206.038834,222.519012 
	C206.065765,222.714706 206.092682,222.910385 206.057785,224.025558 
	C206.052414,228.514832 206.171173,233.008682 206.005692,237.492050 
	C205.849823,241.714996 205.394379,245.926865 204.521698,249.710907 
	C199.582199,242.499329 194.266022,235.510468 189.826645,228.003143 
	C186.491104,222.362503 182.769531,219.028595 175.214127,221.504395 
	C175.130722,232.613846 175.029694,243.723267 175.006561,254.832840 
	C175.005127,255.518265 175.617828,256.204956 176.835281,256.948669 
	C184.982437,257.034302 184.982819,257.034302 184.986801,248.834991 
	C184.988159,246.054565 184.987030,243.274155 184.987030,239.123474 
	C190.346817,246.619431 195.546417,252.752808 199.417770,259.633514 
	C203.111176,266.197968 207.591888,269.502838 215.886230,267.490845 
	C215.916656,252.867844 215.961105,238.244827 215.941284,223.621887 
	C215.940140,222.779907 215.415634,221.938644 214.220047,221.047638 
	C211.779755,221.083710 209.339462,221.119766 206.466171,221.192062 
M250.010040,250.209961 
	C247.138809,257.948151 240.242569,258.425598 232.986679,259.678955 
	C232.986679,257.528717 232.838913,255.720169 233.018021,253.944580 
	C233.370346,250.451706 232.367935,248.906235 228.415970,248.879211 
	C224.230087,248.850601 223.821442,250.862228 223.976303,254.117249 
	C224.142075,257.602020 223.853256,261.113434 224.122467,264.585327 
	C224.211624,265.735168 225.485474,267.792664 226.100601,267.749939 
	C233.470764,267.237946 241.380066,267.881042 248.049637,265.339111 
	C259.958557,260.800323 261.512634,250.222321 259.329742,236.719177 
	C258.399139,230.962479 254.591187,227.238586 249.742416,224.193893 
	C242.421005,219.596573 234.435379,221.010712 226.599304,221.206909 
	C225.715302,221.229050 224.260452,223.245026 224.144058,224.440948 
	C223.807297,227.900970 224.063629,231.415131 224.000290,234.906464 
	C223.949478,237.707855 223.783615,240.109665 227.945908,240.088516 
	C231.977158,240.068054 233.325226,238.464874 233.023987,234.697922 
	C232.910706,233.281143 233.225616,231.830124 233.326111,230.625153 
	C243.110184,226.338013 254.488205,240.338577 250.010040,250.209961 
M370.679535,253.769501 
	C370.051056,255.185135 369.782715,257.411316 368.732574,257.877899 
	C363.847870,260.048157 364.938019,263.765900 365.396301,267.479065 
	C371.428101,268.277405 376.716614,265.759949 379.028015,261.158020 
	C381.202423,256.828888 380.019012,249.153137 376.922913,245.262115 
	C373.730713,241.250336 369.402008,240.237869 364.702240,240.000214 
	C360.991241,239.812561 359.826416,237.606567 360.045319,234.334320 
	C360.272491,230.938721 362.543213,229.568726 365.526886,230.138824 
	C367.251404,230.468369 368.627563,232.376053 370.365845,232.935760 
	C372.978821,233.777115 375.771881,234.059204 378.488342,234.579086 
	C378.448456,232.344528 379.129913,229.751541 378.231537,227.943573 
	C375.681183,222.811142 371.271271,220.657379 365.348419,220.940460 
	C357.605316,221.310562 352.176208,224.994278 351.061340,231.390259 
	C349.405792,240.887894 351.882263,245.143982 360.818695,248.025467 
	C362.387543,248.531342 364.204346,248.504578 365.588654,249.286682 
	C367.323212,250.266663 368.729431,251.827789 370.679535,253.769501 
M332.049316,265.582672 
	C334.825867,270.116089 338.489227,267.445587 342.534454,267.471100 
	C336.274292,251.600342 330.333405,236.539062 324.392517,221.477783 
	C323.745087,221.584564 323.097626,221.691360 322.450165,221.798141 
	C316.583832,236.916870 310.717499,252.035583 304.776276,267.347260 
	C313.880066,268.747437 313.899567,268.754669 316.657074,261.320953 
	C318.816071,255.500687 320.918884,249.659592 323.287201,243.168427 
	C326.321930,250.829041 329.090363,257.817505 332.049316,265.582672 
z"/>
<path fill="#424242" opacity="1.000000" stroke="none" 
	d="
M175.956314,221.083450 
	C182.769531,219.028595 186.491104,222.362503 189.826645,228.003143 
	C194.266022,235.510468 199.582199,242.499329 204.877243,250.211105 
	C205.485565,250.879974 205.744232,251.188263 205.989471,251.177933 
	C206.233307,251.167679 206.673080,250.833527 206.669876,250.647598 
	C206.510727,241.466675 206.313034,232.286407 206.119598,223.106079 
	C206.092682,222.910385 206.065765,222.714706 206.237793,222.134903 
	C206.646500,221.595703 206.800644,221.397385 206.899170,221.155838 
	C209.339462,221.119766 211.779755,221.083710 214.636230,221.533234 
	C215.080048,237.312943 215.107697,252.607086 215.135345,267.901215 
	C207.591888,269.502838 203.111176,266.197968 199.417770,259.633514 
	C195.546417,252.752808 190.346817,246.619431 184.987030,239.123474 
	C184.987030,243.274155 184.988159,246.054565 184.986801,248.834991 
	C184.982819,257.034302 184.982437,257.034302 176.417877,256.459656 
	C175.985764,244.341583 175.971039,232.712509 175.956314,221.083450 
z"/>
<path fill="#404040" opacity="1.000000" stroke="none" 
	d="
M431.168182,274.843353 
	C423.971710,275.169891 423.968903,275.169891 423.968079,267.736877 
	C423.965973,249.453156 423.966736,231.169434 423.774231,212.027832 
	C403.748352,211.155060 383.914551,211.140152 364.080780,211.125244 
	C364.059753,208.684692 364.038727,206.244141 364.517761,203.388519 
	C387.329987,202.980911 409.642120,202.988388 431.954285,202.995880 
	C432.286011,205.422409 432.617737,207.848938 432.616699,210.992493 
	C432.191620,230.648941 432.124573,249.588562 431.971436,268.527527 
	C431.954407,270.634827 431.447754,272.738159 431.168182,274.843353 
z"/>
<path fill="#404040" opacity="1.000000" stroke="none" 
	d="
M46.931614,280.819244 
	C46.607143,278.451782 46.282673,276.084320 46.295486,272.998505 
	C46.720207,251.228195 46.807648,230.176224 46.895088,209.124268 
	C48.992531,209.103561 51.089977,209.082840 53.615707,209.566193 
	C54.035522,228.784317 54.004631,247.498444 54.059067,266.212311 
	C54.063663,267.792786 54.639729,269.371613 54.950302,270.951202 
	C54.950302,270.951202 55.042534,271.394043 55.184555,272.025818 
	C76.199554,272.750122 97.072533,272.842590 117.945511,272.935089 
	C117.955544,275.350189 117.965576,277.765259 117.496948,280.576599 
	C93.656067,280.921661 70.293839,280.870453 46.931614,280.819244 
z"/>
<path fill="#424242" opacity="1.000000" stroke="none" 
	d="
M250.101837,249.812958 
	C254.488205,240.338577 243.110184,226.338013 233.326111,230.625153 
	C233.225616,231.830124 232.910706,233.281143 233.023987,234.697922 
	C233.325226,238.464874 231.977158,240.068054 227.945908,240.088516 
	C223.783615,240.109665 223.949478,237.707855 224.000290,234.906464 
	C224.063629,231.415131 223.807297,227.900970 224.144058,224.440948 
	C224.260452,223.245026 225.715302,221.229050 226.599304,221.206909 
	C234.435379,221.010712 242.421005,219.596573 249.742416,224.193893 
	C254.591187,227.238586 258.399139,230.962479 259.329742,236.719177 
	C261.512634,250.222321 259.958557,260.800323 248.049637,265.339111 
	C241.380066,267.881042 233.470764,267.237946 226.100601,267.749939 
	C225.485474,267.792664 224.211624,265.735168 224.122467,264.585327 
	C223.853256,261.113434 224.142075,257.602020 223.976303,254.117249 
	C223.821442,250.862228 224.230087,248.850601 228.415970,248.879211 
	C232.367935,248.906235 233.370346,250.451706 233.018021,253.944580 
	C232.838913,255.720169 232.986679,257.528717 232.986679,259.678955 
	C240.242569,258.425598 247.138809,257.948151 250.101837,249.812958 
z"/>
<path fill="#424242" opacity="1.000000" stroke="none" 
	d="
M99.144089,240.911865 
	C104.594917,240.592270 110.120354,240.695633 115.461411,239.753616 
	C117.731216,239.353271 119.614777,236.762985 121.673874,235.167938 
	C119.374626,233.354584 117.297989,230.535217 114.723549,229.965546 
	C110.937653,229.127823 106.786949,229.754684 102.809265,230.020752 
	C99.023735,230.273987 99.018364,227.991882 98.970032,225.263245 
	C98.920807,222.484955 99.513222,220.890366 102.786072,220.958771 
	C107.424255,221.055695 112.070518,220.659195 116.713821,220.645905 
	C121.834221,220.631271 128.750778,224.965805 130.060730,229.285538 
	C131.841660,235.158310 131.818192,240.931076 126.335793,245.044540 
	C123.019051,247.533127 122.841522,249.789703 124.849846,253.343613 
	C127.323402,257.720825 128.993088,262.552277 131.030487,267.234009 
	C121.578781,269.319855 120.606796,268.706177 117.531448,260.552094 
	C116.253136,257.162720 114.454437,253.935425 112.572792,250.827942 
	C111.983131,249.854126 110.349731,249.512299 108.206108,248.341675 
	C108.206108,255.335190 108.206108,261.219757 108.206108,267.966248 
	C104.981361,267.966248 102.405373,267.966248 99.410851,267.478790 
	C99.042908,258.298187 99.093498,249.605026 99.144089,240.911865 
z"/>
<path fill="#404040" opacity="1.000000" stroke="none" 
	d="
M268.890015,221.107849 
	C275.055359,221.074036 281.223633,221.143585 287.384857,220.966400 
	C290.903809,220.865219 292.041534,222.422150 292.051025,225.771347 
	C292.060608,229.149231 290.479401,230.207352 287.432068,230.005524 
	C286.270782,229.928604 285.099792,229.995682 283.933228,230.001160 
	C278.351135,230.027390 276.202972,232.862854 278.252014,238.047729 
	C278.649200,239.052811 280.771637,239.823212 282.148956,239.911560 
	C286.630035,240.198975 291.134735,240.112045 295.629730,240.200592 
	C295.919525,240.206299 296.204041,240.477936 296.798767,240.784531 
	C296.798767,243.200150 296.798767,245.763107 296.798767,249.003754 
	C291.743561,249.003754 286.960663,249.081573 282.181274,248.985016 
	C275.466125,248.849350 278.394897,253.891418 278.118744,256.863190 
	C277.731903,261.025604 281.009155,260.111328 283.344604,259.701233 
	C290.945129,258.366669 292.245270,259.108673 292.039856,264.601837 
	C291.940582,267.256195 290.830292,268.051147 288.369751,268.015961 
	C282.204834,267.927704 276.037872,267.982849 269.436066,267.493164 
	C268.963593,251.706543 268.926819,236.407211 268.890015,221.107849 
z"/>
<path fill="#404040" opacity="1.000000" stroke="none" 
	d="
M415.908905,239.871109 
	C418.509369,247.159454 417.308472,248.955292 409.803070,248.998123 
	C408.806488,249.003815 407.809814,248.999802 406.813202,249.000122 
	C396.966980,249.003250 396.966980,249.003235 398.582642,259.867462 
	C400.713593,259.598419 402.864136,259.243866 405.029175,259.073364 
	C408.167053,258.826263 410.896851,258.728363 411.108490,263.347778 
	C411.314240,267.839081 409.049805,268.129883 405.647736,268.039825 
	C400.036011,267.891266 394.417450,267.999512 388.016083,267.999512 
	C388.016083,252.307190 388.016083,237.095383 388.498779,221.456360 
	C395.827271,221.029175 402.673126,221.029175 409.890625,221.029175 
	C409.890625,224.053665 409.890625,226.470215 409.434906,228.939316 
	C405.080902,228.991867 401.182648,228.991867 397.322601,228.991867 
	C397.322601,233.006592 397.322601,236.365799 397.322601,239.871109 
	C403.751862,239.871109 409.830383,239.871109 415.908905,239.871109 
z"/>
<path fill="#404040" opacity="1.000000" stroke="none" 
	d="
M166.908936,239.871155 
	C169.503845,247.123428 168.270248,248.954529 160.753235,248.998123 
	C159.089981,249.007767 157.426605,249.000473 155.763290,249.000122 
	C149.119659,248.998703 147.343262,251.213638 149.179001,257.709320 
	C149.453018,258.678955 151.146790,259.756653 152.278854,259.875031 
	C155.201843,260.180756 158.178055,259.977448 161.562073,259.977448 
	C161.562073,262.408295 161.562073,264.791290 161.562073,267.589783 
	C154.289017,267.589783 147.067612,267.589783 139.007736,267.589783 
	C139.007736,252.339630 139.007736,237.110397 139.495575,221.454239 
	C146.829468,221.027313 153.675507,221.027313 160.890060,221.027313 
	C160.890060,224.055191 160.890060,226.470734 160.434479,228.938599 
	C156.085510,228.990906 152.192123,228.990906 148.334122,228.990906 
	C148.334122,233.001785 148.334122,236.350296 148.334122,239.871155 
	C154.767914,239.871155 160.838425,239.871155 166.908936,239.871155 
z"/>
<path fill="#444444" opacity="1.000000" stroke="none" 
	d="
M370.478455,253.453781 
	C368.729431,251.827789 367.323212,250.266663 365.588654,249.286682 
	C364.204346,248.504578 362.387543,248.531342 360.818695,248.025467 
	C351.882263,245.143982 349.405792,240.887894 351.061340,231.390259 
	C352.176208,224.994278 357.605316,221.310562 365.348419,220.940460 
	C371.271271,220.657379 375.681183,222.811142 378.231537,227.943573 
	C379.129913,229.751541 378.448456,232.344528 378.488342,234.579086 
	C375.771881,234.059204 372.978821,233.777115 370.365845,232.935760 
	C368.627563,232.376053 367.251404,230.468369 365.526886,230.138824 
	C362.543213,229.568726 360.272491,230.938721 360.045319,234.334320 
	C359.826416,237.606567 360.991241,239.812561 364.702240,240.000214 
	C369.402008,240.237869 373.730713,241.250336 376.922913,245.262115 
	C380.019012,249.153137 381.202423,256.828888 379.028015,261.158020 
	C376.716614,265.759949 371.428101,268.277405 365.396301,267.479065 
	C364.938019,263.765900 363.847870,260.048157 368.732574,257.877899 
	C369.782715,257.411316 370.051056,255.185135 370.478455,253.453781 
z"/>
<path fill="#444444" opacity="1.000000" stroke="none" 
	d="
M331.954071,265.194336 
	C329.090363,257.817505 326.321930,250.829041 323.287201,243.168427 
	C320.918884,249.659592 318.816071,255.500687 316.657074,261.320953 
	C313.899567,268.754669 313.880066,268.747437 304.776276,267.347260 
	C310.717499,252.035583 316.583832,236.916870 322.450165,221.798141 
	C323.097626,221.691360 323.745087,221.584564 324.392517,221.477783 
	C330.333405,236.539062 336.274292,251.600342 342.534454,267.471100 
	C338.489227,267.445587 334.825867,270.116089 331.954071,265.194336 
z"/>
<path fill="#404040" opacity="1.000000" stroke="none" 
	d="
M80.062256,267.886780 
	C77.634430,267.917023 75.206604,267.947296 72.363029,267.481445 
	C71.947281,257.379303 71.947281,247.773315 71.947281,238.102646 
	C75.018959,238.102646 77.494781,238.102646 79.981308,238.564606 
	C80.015427,248.646622 80.038841,258.266693 80.062256,267.886780 
z"/>
<path fill="#404040" opacity="1.000000" stroke="none" 
	d="
M62.091545,228.080460 
	C62.065315,225.994644 62.039082,223.908813 62.500443,221.421722 
	C71.816666,221.020447 80.645294,221.020447 89.900970,221.020447 
	C89.900970,223.672424 89.900970,225.762512 89.442917,227.917358 
	C80.020432,228.014893 71.055984,228.047668 62.091545,228.080460 
z"/>
<path fill="#E6E6E6" opacity="1.000000" stroke="none" 
	d="
M46.585327,281.033539 
	C70.293839,280.870453 93.656067,280.921661 117.480286,281.029114 
	C116.966393,281.397064 115.991135,281.978577 115.014534,281.980804 
	C92.935860,282.031738 70.857018,282.027618 48.778294,281.985901 
	C47.931416,281.984314 47.085438,281.504700 46.585327,281.033539 
z"/>
<path fill="#ACACAC" opacity="1.000000" stroke="none" 
	d="
M431.770203,202.601151 
	C409.642120,202.988388 387.329987,202.980911 364.557007,202.932907 
	C364.614624,202.602112 365.133331,202.057709 365.651611,202.058151 
	C387.629822,202.077194 409.608002,202.144806 431.770203,202.601151 
z"/>
<path fill="#9E9E9E" opacity="1.000000" stroke="none" 
	d="
M431.592224,274.893188 
	C431.447754,272.738159 431.954407,270.634827 431.971436,268.527527 
	C432.124573,249.588562 432.191620,230.648941 432.583069,211.429794 
	C432.920654,231.594849 432.970642,252.039627 432.956085,272.484344 
	C432.955505,273.304138 432.343414,274.123474 431.592224,274.893188 
z"/>
<path fill="#868686" opacity="1.000000" stroke="none" 
	d="
M46.541817,209.351166 
	C46.807648,230.176224 46.720207,251.228195 46.361946,272.585022 
	C46.123596,251.785980 46.156071,230.682022 46.541817,209.351166 
z"/>
<path fill="#ACACAC" opacity="1.000000" stroke="none" 
	d="
M117.779068,272.531403 
	C97.072533,272.842590 76.199554,272.750122 55.153641,272.249878 
	C75.858009,271.937286 96.735313,272.032501 117.779068,272.531403 
z"/>
<path fill="#636363" opacity="1.000000" stroke="none" 
	d="
M54.966156,270.486511 
	C54.639729,269.371613 54.063663,267.792786 54.059067,266.212311 
	C54.004631,247.498444 54.035522,228.784317 54.062843,209.613281 
	C54.383301,210.868210 54.941433,212.579269 54.947105,214.292191 
	C55.008663,232.868561 54.983505,251.445236 54.966156,270.486511 
z"/>
<path fill="#FFFFFF" opacity="1.000000" stroke="none" 
	d="
M364.268219,211.514496 
	C383.914551,211.140152 403.748352,211.155060 423.783997,211.555573 
	C404.142456,211.928696 384.299072,211.916214 364.268219,211.514496 
z"/>
<path fill="#E6E6E6" opacity="1.000000" stroke="none" 
	d="
M215.510788,267.696045 
	C215.107697,252.607086 215.080048,237.312943 215.093567,221.557922 
	C215.415634,221.938644 215.940140,222.779907 215.941284,223.621887 
	C215.961105,238.244827 215.916656,252.867844 215.510788,267.696045 
z"/>
<path fill="#9E9E9E" opacity="1.000000" stroke="none" 
	d="
M268.519318,221.316467 
	C268.926819,236.407211 268.963593,251.706543 268.963379,267.468781 
	C268.620697,267.263184 268.048645,266.594818 268.048431,265.926239 
	C268.043671,251.125854 268.102173,236.325470 268.519318,221.316467 
z"/>
<path fill="#E6E6E6" opacity="1.000000" stroke="none" 
	d="
M166.714447,239.487640 
	C160.838425,239.871155 154.767914,239.871155 148.334122,239.871155 
	C148.334122,236.350296 148.334122,233.001785 148.334122,228.990906 
	C152.192123,228.990906 156.085510,228.990906 160.675705,228.993576 
	C161.372528,228.996246 161.862915,229.062256 161.862915,229.062256 
	C157.772217,229.523804 153.681503,229.985367 149.294220,230.480408 
	C149.294220,232.969757 149.294220,235.704895 149.294220,239.104111 
	C155.007706,239.104111 160.763840,239.104111 166.714447,239.487640 
z"/>
<path fill="#E6E6E6" opacity="1.000000" stroke="none" 
	d="
M415.714417,239.487595 
	C409.830383,239.871109 403.751862,239.871109 397.322601,239.871109 
	C397.322601,236.365799 397.322601,233.006592 397.322601,228.991867 
	C401.182648,228.991867 405.080902,228.991867 409.674622,228.996796 
	C410.370056,229.001709 410.859192,229.063690 410.859192,229.063690 
	C406.767273,229.524170 402.675385,229.984650 398.285614,230.478653 
	C398.285614,232.969284 398.285614,235.703629 398.285614,239.104080 
	C404.006439,239.104080 409.763184,239.104080 415.714417,239.487595 
z"/>
<path fill="#E6E6E6" opacity="1.000000" stroke="none" 
	d="
M79.970604,238.102646 
	C77.494781,238.102646 75.018959,238.102646 71.947281,238.102646 
	C71.947281,247.773315 71.947281,257.379303 71.908470,267.446655 
	C71.592636,264.569733 71.137497,261.234711 71.075943,257.892487 
	C70.950897,251.102921 71.038574,244.309418 71.038574,237.111481 
	C74.313087,237.111481 77.401527,237.111481 80.448639,237.527954 
	C80.407303,237.944412 79.970604,238.102646 79.970604,238.102646 
z"/>
<path fill="#9E9E9E" opacity="1.000000" stroke="none" 
	d="
M89.900970,227.852600 
	C89.900970,225.762512 89.900970,223.672424 89.900970,221.020447 
	C80.645294,221.020447 71.816666,221.020447 62.525284,220.976288 
	C63.873371,220.616196 65.680939,220.051361 67.495621,220.027527 
	C75.228119,219.925903 82.962730,219.984314 90.839081,219.984314 
	C90.839081,223.109924 90.839081,225.872177 90.395889,228.504852 
	C89.935455,228.201035 89.918213,228.026810 89.900970,227.852600 
z"/>
<path fill="#636363" opacity="1.000000" stroke="none" 
	d="
M175.585220,221.293915 
	C175.971039,232.712509 175.985764,244.341583 175.972626,256.430847 
	C175.617828,256.204956 175.005127,255.518265 175.006561,254.832840 
	C175.029694,243.723267 175.130722,232.613846 175.585220,221.293915 
z"/>
<path fill="#9E9E9E" opacity="1.000000" stroke="none" 
	d="
M161.907700,228.599915 
	C161.862915,229.062256 161.372528,228.996246 161.131287,228.941254 
	C160.890060,226.470734 160.890060,224.055191 160.890060,221.027313 
	C153.675507,221.027313 146.829468,221.027313 139.520477,220.982239 
	C143.168884,220.618881 147.275681,220.199142 151.393005,220.013733 
	C154.807785,219.859970 158.235001,219.982269 161.952484,219.982269 
	C161.952484,222.956161 161.952484,225.546875 161.907700,228.599915 
z"/>
<path fill="#636363" opacity="1.000000" stroke="none" 
	d="
M206.088684,223.565826 
	C206.313034,232.286407 206.510727,241.466675 206.669876,250.647598 
	C206.673080,250.833527 206.233307,251.167679 205.989471,251.177933 
	C205.744232,251.188263 205.485565,250.879974 205.151764,250.427460 
	C205.394379,245.926865 205.849823,241.714996 206.005692,237.492050 
	C206.171173,233.008682 206.052414,228.514832 206.088684,223.565826 
z"/>
<path fill="#9E9E9E" opacity="1.000000" stroke="none" 
	d="
M410.907990,228.601471 
	C410.859192,229.063690 410.370056,229.001709 410.130341,228.944244 
	C409.890625,226.470215 409.890625,224.053665 409.890625,221.029175 
	C402.673126,221.029175 395.827271,221.029175 388.518311,220.984283 
	C391.836853,220.619690 395.613220,220.176590 399.401611,220.015152 
	C403.147949,219.855484 406.906372,219.980255 410.956787,219.980255 
	C410.956787,222.953766 410.956787,225.546509 410.907990,228.601471 
z"/>
<path fill="#636363" opacity="1.000000" stroke="none" 
	d="
M79.981308,238.564606 
	C79.970604,238.102646 80.407303,237.944412 80.636253,237.905487 
	C80.826637,247.714615 80.788063,257.562653 80.405876,267.648743 
	C80.038841,258.266693 80.015427,248.646622 79.981308,238.564606 
z"/>
<path fill="#868686" opacity="1.000000" stroke="none" 
	d="
M89.442917,227.917358 
	C89.918213,228.026810 89.935455,228.201035 89.986282,228.635681 
	C80.845818,228.874786 71.671783,228.853424 62.294643,228.456268 
	C71.055984,228.047668 80.020432,228.014893 89.442917,227.917358 
z"/>
<path fill="#9E9E9E" opacity="1.000000" stroke="none" 
	d="
M98.892159,240.625610 
	C99.093498,249.605026 99.042908,258.298187 98.952438,267.452911 
	C98.606728,265.096680 98.031433,262.277161 98.049713,259.461456 
	C98.091110,253.086395 98.425179,246.713257 98.892159,240.625610 
z"/>
<path fill="#636363" opacity="1.000000" stroke="none" 
	d="
M206.682678,221.173950 
	C206.800644,221.397385 206.646500,221.595703 206.268890,221.840240 
	C206.056213,221.601364 206.177933,221.355484 206.682678,221.173950 
z"/>
</svg>